# xmcd CD Database Entry
#
# Track frame offsets:
# 150
# 13263
# 30583
# 48398
# 63188
# 76425
# 90035
# 105235
# 125743
# 141318
#
# Disc length: 2132 seconds
#
# Revision: 2
# Processed by: cddbd v1.4PL0 Copyright (c) Steve Scherf et al.
# Submitted via: tcd 2.0b
#
DISCID=7708520a
DTITLE=Suzy Bogguss - Aces
DYEAR=1900
DGENRE=
TTITLE0=Outbound Plane
TTITLE1=Aces
TTITLE2=Someday Soon
TTITLE3=Let Goodbye Hurt
TTITLE4=Save Yourself
TTITLE5=Yellow River Road
TTITLE6=Part of Me
TTITLE7=Letting Go
TTITLE8=Music on the Wind
TTITLE9=Still Hold On
EXTD=
EXTT0=
EXTT1=
EXTT2=
EXTT3=
EXTT4=
EXTT5=
EXTT6=
EXTT7=
EXTT8=
EXTT9=
PLAYORDER=
